<svg xmlns="http://www.w3.org/2000/svg" viewBox="0 0 100 100" width="100" height="100">
  <style>
    .bg{fill:#fbf6e9} .edge{stroke:#cdbf9f} .ink{fill:#23201b}
    @media (prefers-color-scheme: dark){
      .bg{fill:#211d20} .edge{stroke:#3a3550} .ink{fill:#f2ebde}
    }
  </style>
  <rect class="bg edge" x="14" y="14" width="72" height="72" rx="5" stroke-width="1.5"/>
  <g transform="rotate(-32 22 22)"><rect x="-1" y="13.5" width="46" height="17" fill="#ff6b3d" opacity="0.85"/></g>
  <g transform="rotate(-32 78 78)"><rect x="55" y="69.5" width="46" height="17" fill="#7c77c6" opacity="0.9"/></g>
  <path class="ink" d="M37.758590087890624 33.60911804199219V36.39721740722656L38.26070190429688 37.405068359375V69.13349060058593Q38.26070190429688 70.21602478027344 38.43825469970703 70.67676391601563Q38.61580749511719 71.13750305175782 39.056018676757816 71.32792541503906L39.794329223632815 71.62303100585937Q40.40601867675781 71.87898132324219 40.669310607910155 72.2678012084961Q40.9326025390625 72.65662109375 40.9326025390625 73.17341613769531Q40.9326025390625 73.89595031738281 40.468465881347655 74.3074285888672Q40.004329223632816 74.71890686035157 38.97563354492188 74.71890686035157H25.1292236328125Q24.105422363281253 74.71890686035157 23.638838500976565 74.3074285888672Q23.172254638671877 73.89595031738281 23.172254638671877 73.17341613769531Q23.172254638671877 72.65662109375 23.43554656982422 72.2678012084961Q23.698838500976564 71.87898132324219 24.310527954101566 71.62303100585937L25.048838500976565 71.32792541503906Q25.493944091796877 71.13750305175782 25.66904968261719 70.67676391601563Q25.8441552734375 70.21602478027344 25.8441552734375 69.13349060058593V39.869043579101564Q25.8441552734375 39.02650939941407 25.611180114746094 38.66800628662109Q25.378204956054688 38.309503173828126 24.90736022949219 38.18397521972656L24.1641552734375 38.00823608398437Q23.602677001953126 37.83249694824219 23.35193786621094 37.493888244628906Q23.101198730468752 37.15527954101563 23.101198730468752 36.633590087890624Q23.101198730468752 36.01147827148438 23.442254638671876 35.6878695678711Q23.783310546875 35.364260864257815 24.706689453125 34.95767700195313L31.63299987792969 32.25957763671875Q32.92190673828125 31.717677001953128 33.74731048583985 31.499385070800784Q34.57271423339844 31.281093139648437 35.25482604980469 31.281093139648437Q36.51926086425782 31.281093139648437 37.13892547607422 31.940863342285155Q37.758590087890624 32.60063354492188 37.758590087890624 33.60911804199219ZM36.270105590820314 41.38136657714844 34.40929809570313 39.58608703613281Q36.84736022949219 35.68954040527343 39.85424224853516 33.49510559082031Q42.86112426757813 31.300670776367188 46.75640380859375 31.300670776367188Q50.311720581054686 31.300670776367188 53.09011810302734 33.084173889160155Q55.868515625 34.867677001953126 57.464360351562505 38.04373291015625Q59.060205078125 41.219788818359376 59.060205078125 45.44Q59.060205078125 50.26637268066406 57.106490783691406 53.89242858886719Q55.15277648925781 57.51848449707031 51.760875854492184 59.52911804199219Q48.368975219726565 61.539751586914065 44.081968994140624 61.539751586914065Q40.59390686035157 61.539751586914065 38.067341613769536 60.11221740722657Q35.540776367187505 58.68468322753906 33.72718627929687 55.75003723144531L36.59095031738281 53.83349060058594Q37.82411804199219 55.69602478027344 38.98314910888672 56.484316711425784Q40.14218017578125 57.27260864257813 41.53813049316406 57.27260864257813Q42.953024902343756 57.27260864257813 44.020472106933596 56.25016143798828Q45.087919311523436 55.22771423339844 45.67536651611328 52.89450927734375Q46.26281372070312 50.561304321289064 46.26281372070312 46.66637268066406Q46.26281372070312 43.12038513183594 45.66983856201172 40.97728576660157Q45.07686340332032 38.83418640136719 44.05622985839844 37.86226715087891Q43.03559631347656 36.89034790039062 41.68496276855469 36.89034790039062Q40.10837890625 36.89034790039062 38.774875793457035 37.95416778564453Q37.44137268066407 39.017987670898435 36.270105590820314 41.38136657714844Z"/>
  <path class="ink" d="M69.88221291463883 61.589962768554685Q67.94457763671875 61.589962768554685 66.36167210629111 60.60877858082009Q64.77876657586349 59.6275943930855 63.855405016447364 57.987405900156034Q62.93204345703125 56.347217407226566 62.93204345703125 54.436372680664064Q62.93204345703125 52.48021118164063 63.855018615722656 50.88191925048828Q64.77799377441406 49.283627319335935 66.361953125 48.318099365234374Q67.94591247558594 47.352571411132814 69.88186279296875 47.352571411132814Q71.87647827148437 47.352571411132814 73.46221740722656 48.318099365234374Q75.04795654296875 49.283627319335935 75.97337890624999 50.88191925048828Q76.89880126953125 52.48021118164063 76.89880126953125 54.436372680664064Q76.89880126953125 56.347217407226566 75.97402079597848 57.987405900156034Q75.04924032242572 59.6275943930855 73.46390236776384 60.60877858082009Q71.87856441310194 61.589962768554685 69.88221291463883 61.589962768554685Z"/>
</svg>
